<svg id="visual" viewBox="0 0 900 600" width="900" height="600" xmlns="http://www.w3.org/2000/svg" xmlns:xlink="http://www.w3.org/1999/xlink" version="1.1"><rect x="0" y="0" width="900" height="600" fill="#001220"></rect><defs><linearGradient id="grad1_0" x1="33.3%" y1="100%" x2="100%" y2="0%"><stop offset="20%" stop-color="#fbae3c" stop-opacity="1"></stop><stop offset="80%" stop-color="#fbae3c" stop-opacity="1"></stop></linearGradient></defs><defs><linearGradient id="grad1_1" x1="33.3%" y1="100%" x2="100%" y2="0%"><stop offset="20%" stop-color="#fbae3c" stop-opacity="1"></stop><stop offset="80%" stop-color="#f17c53" stop-opacity="1"></stop></linearGradient></defs><defs><linearGradient id="grad1_2" x1="33.3%" y1="100%" x2="100%" y2="0%"><stop offset="20%" stop-color="#cc5867" stop-opacity="1"></stop><stop offset="80%" stop-color="#f17c53" stop-opacity="1"></stop></linearGradient></defs><defs><linearGradient id="grad1_3" x1="33.3%" y1="100%" x2="100%" y2="0%"><stop offset="20%" stop-color="#cc5867" stop-opacity="1"></stop><stop offset="80%" stop-color="#96446e" stop-opacity="1"></stop></linearGradient></defs><defs><linearGradient id="grad1_4" x1="33.3%" y1="100%" x2="100%" y2="0%"><stop offset="20%" stop-color="#593762" stop-opacity="1"></stop><stop offset="80%" stop-color="#96446e" stop-opacity="1"></stop></linearGradient></defs><defs><linearGradient id="grad1_5" x1="33.3%" y1="100%" x2="100%" y2="0%"><stop offset="20%" stop-color="#593762" stop-opacity="1"></stop><stop offset="80%" stop-color="#232745" stop-opacity="1"></stop></linearGradient></defs><defs><linearGradient id="grad1_6" x1="33.3%" y1="100%" x2="100%" y2="0%"><stop offset="20%" stop-color="#001220" stop-opacity="1"></stop><stop offset="80%" stop-color="#232745" stop-opacity="1"></stop></linearGradient></defs><defs><linearGradient id="grad2_0" x1="0%" y1="100%" x2="66.7%" y2="0%"><stop offset="20%" stop-color="#fbae3c" stop-opacity="1"></stop><stop offset="80%" stop-color="#fbae3c" stop-opacity="1"></stop></linearGradient></defs><defs><linearGradient id="grad2_1" x1="0%" y1="100%" x2="66.7%" y2="0%"><stop offset="20%" stop-color="#f17c53" stop-opacity="1"></stop><stop offset="80%" stop-color="#fbae3c" stop-opacity="1"></stop></linearGradient></defs><defs><linearGradient id="grad2_2" x1="0%" y1="100%" x2="66.7%" y2="0%"><stop offset="20%" stop-color="#f17c53" stop-opacity="1"></stop><stop offset="80%" stop-color="#cc5867" stop-opacity="1"></stop></linearGradient></defs><defs><linearGradient id="grad2_3" x1="0%" y1="100%" x2="66.7%" y2="0%"><stop offset="20%" stop-color="#96446e" stop-opacity="1"></stop><stop offset="80%" stop-color="#cc5867" stop-opacity="1"></stop></linearGradient></defs><defs><linearGradient id="grad2_4" x1="0%" y1="100%" x2="66.7%" y2="0%"><stop offset="20%" stop-color="#96446e" stop-opacity="1"></stop><stop offset="80%" stop-color="#593762" stop-opacity="1"></stop></linearGradient></defs><defs><linearGradient id="grad2_5" x1="0%" y1="100%" x2="66.7%" y2="0%"><stop offset="20%" stop-color="#232745" stop-opacity="1"></stop><stop offset="80%" stop-color="#593762" stop-opacity="1"></stop></linearGradient></defs><defs><linearGradient id="grad2_6" x1="0%" y1="100%" x2="66.7%" y2="0%"><stop offset="20%" stop-color="#232745" stop-opacity="1"></stop><stop offset="80%" stop-color="#001220" stop-opacity="1"></stop></linearGradient></defs><g transform="translate(900, 600)"><path d="M-241 0C-238.4 -20.5 -235.8 -41 -230.9 -61.9C-226 -82.7 -218.8 -104.1 -203.5 -117.5C-188.3 -130.9 -164.9 -136.5 -150.6 -150.6C-136.3 -164.7 -131.1 -187.2 -118 -204.4C-104.9 -221.6 -84 -233.4 -63 -235.1C-42 -236.8 -21 -228.4 0 -220L0 0Z" fill="#0f1d33"></path><path d="M-206.6 0C-204.3 -17.6 -202.1 -35.1 -197.9 -53C-193.7 -70.9 -187.5 -89.2 -174.4 -100.7C-161.4 -112.2 -141.3 -117 -129.1 -129.1C-116.8 -141.2 -112.4 -160.5 -101.1 -175.2C-89.9 -189.9 -72 -200 -54 -201.5C-36 -203 -18 -195.8 0 -188.6L0 0Z" fill="#3d3056"></path><path d="M-172.1 0C-170.3 -14.6 -168.4 -29.3 -164.9 -44.2C-161.4 -59.1 -156.3 -74.3 -145.4 -83.9C-134.5 -93.5 -117.8 -97.5 -107.6 -107.6C-97.4 -117.6 -93.6 -133.7 -84.3 -146C-74.9 -158.3 -60 -166.7 -45 -167.9C-30 -169.1 -15 -163.1 0 -157.1L0 0Z" fill="#773d6b"></path><path d="M-137.7 0C-136.2 -11.7 -134.7 -23.4 -131.9 -35.3C-129.1 -47.3 -125 -59.5 -116.3 -67.1C-107.6 -74.8 -94.2 -78 -86.1 -86.1C-77.9 -94.1 -74.9 -107 -67.4 -116.8C-59.9 -126.6 -48 -133.4 -36 -134.3C-24 -135.3 -12 -130.5 0 -125.7L0 0Z" fill="#b34c6d"></path><path d="M-103.3 0C-102.2 -8.8 -101 -17.6 -98.9 -26.5C-96.8 -35.5 -93.8 -44.6 -87.2 -50.4C-80.7 -56.1 -70.7 -58.5 -64.5 -64.5C-58.4 -70.6 -56.2 -80.2 -50.6 -87.6C-45 -95 -36 -100 -27 -100.7C-18 -101.5 -9 -97.9 0 -94.3L0 0Z" fill="#e1685e"></path><path d="M-68.9 0C-68.1 -5.9 -67.4 -11.7 -66 -17.7C-64.6 -23.6 -62.5 -29.7 -58.1 -33.6C-53.8 -37.4 -47.1 -39 -43 -43C-38.9 -47.1 -37.5 -53.5 -33.7 -58.4C-30 -63.3 -24 -66.7 -18 -67.2C-12 -67.7 -6 -65.3 0 -62.9L0 0Z" fill="#f99447"></path><path d="M-34.4 0C-34.1 -2.9 -33.7 -5.9 -33 -8.8C-32.3 -11.8 -31.3 -14.9 -29.1 -16.8C-26.9 -18.7 -23.6 -19.5 -21.5 -21.5C-19.5 -23.5 -18.7 -26.7 -16.9 -29.2C-15 -31.7 -12 -33.3 -9 -33.6C-6 -33.8 -3 -32.6 0 -31.4L0 0Z" fill="#fbae3c"></path></g><g transform="translate(0, 0)"><path d="M212 0C223.7 21 235.4 41.9 235.1 63C234.8 84.1 222.5 105.2 204.4 118C186.2 130.8 162.3 135.2 145.7 145.7C129.1 156.1 119.9 172.6 106 183.6C92.1 194.6 73.6 200.1 55.1 205.7C36.7 211.4 18.3 217.2 0 223L0 0Z" fill="#0f1d33"></path><path d="M181.7 0C191.7 18 201.8 35.9 201.5 54C201.2 72 190.7 90.2 175.2 101.1C159.6 112.1 139.1 115.9 124.9 124.9C110.6 133.8 102.7 147.9 90.9 157.4C79 166.8 63.1 171.5 47.3 176.4C31.4 181.2 15.7 186.2 0 191.1L0 0Z" fill="#3d3056"></path><path d="M151.4 0C159.8 15 168.1 29.9 167.9 45C167.7 60 158.9 75.2 146 84.3C133 93.4 115.9 96.6 104 104C92.2 111.5 85.6 123.3 75.7 131.1C65.8 139 52.6 142.9 39.4 147C26.2 151 13.1 155.1 0 159.3L0 0Z" fill="#773d6b"></path><path d="M121.1 0C127.8 12 134.5 24 134.3 36C134.2 48 127.2 60.1 116.8 67.4C106.4 74.7 92.7 77.3 83.2 83.2C73.8 89.2 68.5 98.6 60.6 104.9C52.6 111.2 42 114.3 31.5 117.6C21 120.8 10.5 124.1 0 127.4L0 0Z" fill="#b34c6d"></path><path d="M90.9 0C95.9 9 100.9 18 100.7 27C100.6 36 95.4 45.1 87.6 50.6C79.8 56.1 69.5 57.9 62.4 62.4C55.3 66.9 51.4 74 45.4 78.7C39.5 83.4 31.5 85.8 23.6 88.2C15.7 90.6 7.9 93.1 0 95.6L0 0Z" fill="#e1685e"></path><path d="M60.6 0C63.9 6 67.3 12 67.2 18C67.1 24 63.6 30.1 58.4 33.7C53.2 37.4 46.4 38.6 41.6 41.6C36.9 44.6 34.2 49.3 30.3 52.5C26.3 55.6 21 57.2 15.8 58.8C10.5 60.4 5.2 62.1 0 63.7L0 0Z" fill="#f99447"></path><path d="M30.3 0C32 3 33.6 6 33.6 9C33.5 12 31.8 15 29.2 16.9C26.6 18.7 23.2 19.3 20.8 20.8C18.4 22.3 17.1 24.7 15.1 26.2C13.2 27.8 10.5 28.6 7.9 29.4C5.2 30.2 2.6 31 0 31.9L0 0Z" fill="#fbae3c"></path></g></svg>